:SAMPLES-PER-SECOND 30
:FULLY-SPECIFIED
:DEGREES
123
root  -45.5022 39.0124 17.603 -179.591 -5.08334 -177.318
RightUpLeg  -26.5754 -18.3312 12.5794
RightLeg  18.6452 -4.46061 -0.711056
RightFoot  1.89059 1.1748 -9.98775
RightToes  1.74622e-010 0 -3.6325e-017
Spine  9.48189 -4.5175 5.97958
Spine1  3.7753 -5.78294 6.38531
HEad  -9.00413 2.39276 0.504944
LeftShoulder1  7.12553 -10.6876 -43.6829
LeftArm  -19.5253 6.91384 -14.2333
LeftForeArm  28.5602 -37.6362 -6.88257
LeftHand  -0.244104 0.0205437 5.32207
RightShoulder  5.36195 8.6046 38.2294
RightArm  -13.3626 -32.9187 23.4597
RightForeArm  -0.287391 4.38748 4.30582
RightHand  -0.838665 1.17071 -14.9303
LeftUpLeg  17.6072 17.1998 10.9914
LeftLeg  18.8378 4.64721 2.21704
LeftFoot  -15.904 -0.606482 -18.02
LeftToes  -3.34697e-010 -1.70107e-010 -9.05613e-011
124
root  -45.6618 39.044 16.2055 179.872 -3.84918 -176.629
RightUpLeg  -25.0808 -18.1979 13.1883
RightLeg  21.4759 -3.3076 -1.48345
RightFoot  -1.01525 0.965827 -10.7135
RightToes  1.74622e-010 0 -3.6325e-017
Spine  9.48276 -4.4398 7.55457
Spine1  4.00272 -5.35039 5.8808
HEad  -8.90803 2.86917 0.622594
LeftShoulder1  7.2494 -10.8095 -44.0849
LeftArm  -17.9542 8.95867 -16.8601
LeftForeArm  33.2748 -40.3065 -7.36024
LeftHand  -0.244104 0.0205437 5.32207
RightShoulder  5.48523 8.75408 38.6763
RightArm  -15.0777 -31.1337 25.9912
RightForeArm  -0.959901 4.95639 4.2454
RightHand  -0.895922 1.49434 -15.2109
LeftUpLeg  13.7464 14.6657 10.9591
LeftLeg  29.6221 7.1771 4.79456
LeftFoot  -7.53534 0.602599 -18.3751
LeftToes  -3.34697e-010 -1.70107e-010 -9.05613e-011
125
root  -45.7896 39.1029 14.8932 179.535 -3.22629 -175.952
RightUpLeg  -23.1981 -17.5959 13.0709
RightLeg  23.2304 -3.96866 -1.86616
RightFoot  -3.5066 0.724195 -10.8643
RightToes  1.74622e-010 0 -3.6325e-017
Spine  9.02602 -4.43243 9.51084
Spine1  4.46922 -4.86311 4.88624
HEad  -8.38736 2.65075 0.855771
LeftShoulder1  7.36733 -10.9126 -44.5016
LeftArm  -16.3573 10.3307 -19.5582
LeftForeArm  36.6103 -41.3564 -7.47013
LeftHand  -0.244104 0.0205437 5.32207
RightShoulder  5.66232 8.98122 39.2526
RightArm  -15.6546 -28.6241 28.6738
RightForeArm  -0.510727 6.15934 4.56904
RightHand  -0.927951 1.70616 -15.2917
LeftUpLeg  7.29958 11.9294 10.5526
LeftLeg  42.0599 7.38543 7.39294
LeftFoot  2.6611 1.46384 -12.1513
LeftToes  -3.34697e-010 -1.70107e-010 -9.05613e-011
126
root  -45.9241 39.176 13.6764 179.181 -2.78081 -175.368
RightUpLeg  -21.1791 -16.9312 12.696
RightLeg  24.467 -4.65561 -2.00178
RightFoot  -5.48809 0.500641 -10.4699
RightToes  1.74622e-010 0 -3.6325e-017
Spine  8.72987 -4.3538 11.5025
Spine1  4.91463 -4.25017 3.86588
HEad  -7.80961 1.97517 0.843544
LeftShoulder1  7.52156 -11.0095 -45.157
LeftArm  -14.9669 11.3846 -22.1534
LeftForeArm  37.3588 -40.9574 -7.30515
LeftHand  -0.244104 0.0205437 5.32207
RightShoulder  5.9532 9.36312 40.121
RightArm  -14.3875 -25.1338 30.4397
RightForeArm  0.850905 8.05686 5.32731
RightHand  -0.915248 1.69028 -15.1217
LeftUpLeg  0.219104 9.37056 9.95642
LeftLeg  52.8669 5.11017 7.62804
LeftFoot  7.96166 0.924764 -5.52104
LeftToes  -3.34697e-010 -1.70107e-010 -9.05613e-011
127
root  -46.0498 39.3942 12.435 178.61 -1.84924 -175.609
RightUpLeg  -17.9884 -15.2914 11.2122
RightLeg  24.3864 -5.36326 -1.79964
RightFoot  -7.14808 0.311827 -9.79699
RightToes  1.74622e-010 0 -3.6325e-017
Spine  8.72018 -3.90985 12.2429
Spine1  5.2371 -3.43933 3.02132
HEad  -7.40399 1.29806 0.450666
LeftShoulder1  7.70854 -11.1193 -45.9613
LeftArm  -13.6275 12.5842 -24.5536
LeftForeArm  36.049 -39.3459 -6.9147
LeftHand  -0.244104 0.0205437 5.32207
RightShoulder  6.28249 9.77843 41.097
RightArm  -11.0074 -20.5934 31.2342
RightForeArm  1.90225 10.5329 6.21571
RightHand  -0.97127 1.97106 -15.4287
LeftUpLeg  -5.88171 7.68915 8.89386
LeftLeg  60.0335 3.11641 6.42758
LeftFoot  7.01321 0.538065 -3.62081
LeftToes  -3.34697e-010 -1.70107e-010 -9.05613e-011
128
root  -46.1586 39.6992 11.1603 178.041 -0.502643 -176.492
RightUpLeg  -14.1285 -12.7855 8.94883
RightLeg  23.1929 -6.52005 -1.21557
RightFoot  -8.546 0.16314 -9.0193
RightToes  1.74622e-010 0 -3.6325e-017
Spine  8.60457 -3.13257 12.2365
Spine1  5.56391 -2.38888 2.08979
HEad  -7.04138 0.702776 -0.154283
LeftShoulder1  7.84404 -11.2122 -46.4899
LeftArm  -12.1976 13.9609 -26.9372
LeftForeArm  34.0726 -36.5156 -6.2531
LeftHand  -0.244104 0.0205437 5.32207
RightShoulder  6.52695 10.0504 41.8976
RightArm  -5.14887 -15.6419 31.7387
RightForeArm  0.425072 13.8856 6.58586
RightHand  -1.12202 2.58384 -16.456
LeftUpLeg  -11.043 6.67066 7.58191
LeftLeg  62.9829 2.36358 5.6817
LeftFoot  3.72283 0.651498 -5.11055
LeftToes  -3.34697e-010 -1.70107e-010 -9.05613e-011
129
root  -46.2637 39.9817 9.87442 177.626 1.01706 -177.414
RightUpLeg  -10.4081 -10.1916 6.75707
RightLeg  21.5984 -7.77769 -0.295923
RightFoot  -9.56935 0.0640876 -8.31811
RightToes  1.74622e-010 0 -3.6325e-017
Spine  8.2075 -2.16947 12.5823
Spine1  5.88265 -1.06712 0.66007
HEad  -6.60845 0.0701361 -0.746762
LeftShoulder1  7.89707 -11.2703 -46.6234
LeftArm  -10.7215 15.3401 -29.1847
LeftForeArm  31.9996 -32.6453 -5.38705
LeftHand  -0.244104 0.0205437 5.32207
RightShoulder  6.66682 10.1869 42.4015
RightArm  2.16025 -11.0746 32.2782
RightForeArm  -3.73436 18.3685 5.99426
RightHand  -1.23093 2.90095 -17.3575
LeftUpLeg  -15.5002 5.93294 6.37809
LeftLeg  62.1672 2.48004 5.69719
LeftFoot  1.23394 0.620791 -5.65868
LeftToes  -3.34697e-010 -1.70107e-010 -9.05613e-011
130
root  -46.3558 40.2422 8.58075 177.2 2.70167 -178.307
RightUpLeg  -6.67443 -8.27765 4.93536
RightLeg  19.6045 -8.11224 0.67497
RightFoot  -10.2506 0.00672946 -7.97804
RightToes  1.74622e-010 0 -3.6325e-017
Spine  7.80891 -1.13261 13.026
Spine1  6.13484 0.351514 -1.13821
HEad  -6.28158 -0.471866 -1.23167
LeftShoulder1  7.95057 -11.3202 -46.7852
LeftArm  -9.01345 16.7445 -30.7097
LeftForeArm  29.3811 -28.3432 -4.51341
LeftHand  -0.244104 0.0205437 5.32207
RightShoulder  6.76494 10.323 42.615
RightArm  7.39652 -6.86122 32.6249
RightForeArm  -6.57817 23.1114 5.35967
RightHand  -1.21958 2.7626 -17.4749
LeftUpLeg  -18.8997 5.57539 5.35469
LeftLeg  57.9835 3.04881 5.77609
LeftFoot  -0.391795 0.399034 -4.14341
LeftToes  -3.34697e-010 -1.70107e-010 -9.05613e-011
131
root  -46.4314 40.4346 7.30584 176.714 4.34062 -179.108
RightUpLeg  -3.00278 -7.20536 3.48792
RightLeg  17.5834 -7.41348 1.38247
RightFoot  -11.1066 -0.0585655 -7.7281
RightToes  1.74622e-010 0 -3.6325e-017
Spine  7.52389 -0.270722 13.2356
Spine1  6.4239 1.51111 -2.77506
HEad  -6.28341 -0.685368 -1.55194
LeftShoulder1  8.06726 -11.3885 -47.2648
LeftArm  -6.81309 18.2877 -31.2315
LeftForeArm  26.1286 -24.0807 -3.84456
LeftHand  -0.244104 0.0205437 5.32207
RightShoulder  6.85375 10.4927 42.6532
RightArm  8.76625 -2.39257 32.7346
RightForeArm  -5.29171 26.863 6.03225
RightHand  -1.1586 2.50561 -17.1435
LeftUpLeg  -20.9661 5.65578 4.75766
LeftLeg  50.4624 3.74646 5.29326
LeftFoot  -1.474 0.346116 -3.92096
LeftToes  -3.34697e-010 -1.70107e-010 -9.05613e-011
132
root  -46.5131 40.4931 6.03024 176.405 5.64464 -179.524
RightUpLeg  0.17461 -6.88948 2.38525
RightLeg  16.1317 -6.14117 1.95186
RightFoot  -12.3894 -0.14863 -7.13431
RightToes  1.74622e-010 0 -3.6325e-017
Spine  7.03244 0.269483 13.7218
Spine1  6.79319 2.29992 -4.27846
HEad  -6.58428 -0.627917 -1.62045
LeftShoulder1  8.20183 -11.4805 -47.7671
LeftArm  -5.47985 19.902 -31.1603
LeftForeArm  24.2932 -19.6966 -3.91175
LeftHand  -0.244104 0.0205437 5.32207
RightShoulder  6.91225 10.609 42.6634
RightArm  9.89928 2.32246 33.0155
RightForeArm  -3.93949 29.479 6.61875
RightHand  -1.10339 2.23149 -16.9116
LeftUpLeg  -21.7913 6.03786 4.63806
LeftLeg  39.923 4.12958 4.07382
LeftFoot  -1.44699 0.472741 -5.34974
LeftToes  -3.34697e-010 -1.70107e-010 -9.05613e-011
133
root  -46.6032 40.4897 4.72848 176.312 6.75528 -179.645
RightUpLeg  3.12104 -7.12618 1.3564
RightLeg  14.7643 -4.45447 2.66175
RightFoot  -13.4587 -0.215533 -6.7085
RightToes  1.74622e-010 0 -3.6325e-017
Spine  6.2878 0.674132 14.5269
Spine1  7.23081 2.98215 -6.03311
HEad  -7.014 -0.502786 -1.49178
LeftShoulder1  8.29821 -11.5855 -47.996
LeftArm  -6.98815 21.4623 -30.9746
LeftForeArm  26.0103 -14.9355 -4.88219
LeftHand  -0.244104 0.0205437 5.32207
RightShoulder  6.92353 10.6539 42.5931
RightArm  10.6318 6.62026 33.5121
RightForeArm  -3.20784 31.2656 7.03505
RightHand  -1.03844 1.8199 -16.8115
LeftUpLeg  -21.4266 6.99891 4.42018
LeftLeg  27.0554 3.11058 2.23377
LeftFoot  -0.419278 0.555061 -5.79312
LeftToes  -3.34697e-010 -1.70107e-010 -9.05613e-011
134
root  -46.6852 40.4766 3.41339 176.102 7.95015 -179.785
RightUpLeg  6.25517 -7.52101 0.213933
RightLeg  13.2853 -2.55571 3.24304
RightFoot  -14.2649 -0.272409 -6.85851
RightToes  1.74622e-010 0 -3.6325e-017
Spine  5.67761 1.11739 14.9443
Spine1  7.79668 3.70486 -7.62368
HEad  -7.51996 -0.257911 -1.3862
LeftShoulder1  8.37306 -11.6756 -48.1433
LeftArm  -9.03286 23.0485 -30.8473
LeftForeArm  28.292 -10.3993 -5.45955
LeftHand  -0.244104 0.0205437 5.32207
RightShoulder  6.90502 10.7157 42.275
RightArm  10.9892 10.1099 34.0723
RightForeArm  -3.1122 32.517 7.35971
RightHand  -0.967105 1.37349 -16.6755
LeftUpLeg  -19.8491 7.85549 4.34468
LeftLeg  13.1838 1.73311 0.124742
LeftFoot  1.35192 0.628912 -5.70949
LeftToes  -3.34697e-010 -1.70107e-010 -9.05613e-011
135
root  -46.7664 40.3416 2.04571 175.579 8.95654 -179.91
RightUpLeg  9.32838 -7.95636 -0.941191
RightLeg  12.85 -0.840202 3.34385
RightFoot  -15.9051 -0.365088 -6.524
RightToes  1.74622e-010 0 -3.6325e-017
Spine  5.27564 1.45418 14.7149
Spine1  8.44948 4.17062 -8.30311
HEad  -8.14847 0.236969 -1.34421
LeftShoulder1  8.44196 -11.7299 -48.3689
LeftArm  -9.43011 24.7915 -30.7332
LeftForeArm  28.6249 -7.00773 -5.42303
LeftHand  -0.244104 0.0205437 5.32207
RightShoulder  6.88139 10.8075 41.83
RightArm  11.394 12.9618 34.6243
RightForeArm  -3.2183 33.1178 7.52784
RightHand  -0.926366 1.10841 -16.6149
LeftUpLeg  -17.7218 5.37104 5.95632
LeftLeg  1.69532 5.8353 -2.60162
LeftFoot  3.40951 0.848871 -6.71225
LeftToes  -3.34697e-010 -1.70107e-010 -9.05613e-011
136
root  -46.8693 40.039 0.597224 174.957 9.19296 -179.892
RightUpLeg  12.0052 -8.68344 -2.07787
RightLeg  13.876 0.48429 3.11402
RightFoot  -18.3511 -0.423843 -4.90917
RightToes  1.74622e-010 0 -3.6325e-017
Spine  4.79399 1.47027 14.2647
Spine1  9.10627 4.1887 -8.43193
HEad  -8.84547 0.728783 -1.12426
LeftShoulder1  8.47062 -11.7779 -48.3813
LeftArm  -9.04721 26.5885 -30.6478
LeftForeArm  28.1784 -5.00057 -5.33191
LeftHand  -0.244104 0.0205437 5.32207
RightShoulder  6.84304 10.8119 41.5657
RightArm  11.7692 15.1054 35.1571
RightForeArm  -3.08136 33.1153 7.5199
RightHand  -0.93009 1.06473 -16.7882
LeftUpLeg  -16.9898 4.85485 6.3555
LeftLeg  -2.82452 10.5247 -4.64174
LeftFoot  4.09075 1.03201 -7.79507
LeftToes  -3.34697e-010 -1.70107e-010 -9.05613e-011
137
root  -47.0085 39.7059 -0.892092 174.536 8.87012 -179.828
RightUpLeg  14.3218 -9.72957 -3.26487
RightLeg  15.3747 1.61639 2.67465
RightFoot  -20.1639 -0.378192 -3.1121
RightToes  1.74622e-010 0 -3.6325e-017
Spine  4.1294 1.36774 14.0241
Spine1  9.85411 4.20423 -8.81223
HEad  -9.4028 0.76266 -0.688777
LeftShoulder1  8.45197 -11.8431 -48.0672
LeftArm  -8.87683 28.2421 -30.5694
LeftForeArm  28.2997 -4.22499 -5.28352
LeftHand  -0.244104 0.0205437 5.32207
RightShoulder  6.77617 10.6975 41.4856
RightArm  11.6361 15.8939 35.4351
RightForeArm  -2.89908 33.0503 7.49224
RightHand  -0.962081 1.16829 -17.0902
LeftUpLeg  -17.3186 5.23713 5.47497
LeftLeg  -1.00598 14.1835 -4.91367
LeftFoot  4.21087 0.969732 -7.27828
LeftToes  -3.34697e-010 -1.70107e-010 -9.05613e-011
